<?xml version="1.0" encoding="UTF-8"?>
<svg width="62px" height="60px" viewBox="0 0 62 60" version="1.1" xmlns="http://www.w3.org/2000/svg" xmlns:xlink="http://www.w3.org/1999/xlink">
    <!-- Generator: Sketch 52.5 (67469) - http://www.bohemiancoding.com/sketch -->
    <title>ic_time_normal_nh</title>
    <desc>Created with Sketch.</desc>
    <defs>
        <linearGradient x1="50%" y1="0%" x2="50%" y2="111.138572%" id="linearGradient-1">
            <stop stop-color="#F7A15F" offset="0%"></stop>
            <stop stop-color="#ED6831" offset="100%"></stop>
        </linearGradient>
        <linearGradient x1="50%" y1="0%" x2="50%" y2="100%" id="linearGradient-2">
            <stop stop-color="#D90000" offset="0%"></stop>
            <stop stop-color="#8E0000" offset="100%"></stop>
        </linearGradient>
        <linearGradient x1="50%" y1="0%" x2="50%" y2="100%" id="linearGradient-3">
            <stop stop-color="#B90000" offset="0%"></stop>
            <stop stop-color="#8E0000" offset="100%"></stop>
        </linearGradient>
        <linearGradient x1="50%" y1="0%" x2="50%" y2="100%" id="linearGradient-4">
            <stop stop-color="#F7A15F" offset="0%"></stop>
            <stop stop-color="#ED6831" offset="100%"></stop>
        </linearGradient>
    </defs>
    <g id="页面-1" stroke="none" stroke-width="1" fill="none" fill-rule="evenodd">
        <g id="添加孩子" transform="translate(-37.000000, -286.000000)">
            <g id="ic_time_normal_nh" transform="translate(37.000000, 286.000000)">
                <circle id="椭圆形" fill="#FFFFFF" cx="31" cy="30" r="30"></circle>
                <g id="分组">
                    <path d="M30.9958345,0 C14.3841879,0 0.915682236,13.4303782 0.915682236,29.9949997 C0.915682236,40.1976446 6.02622373,49.2093259 13.8326695,54.6281003 L13.8289976,54.6205332 C13.8671853,54.4879869 13.9095344,54.3578816 13.9506597,54.2270441 C13.9653473,54.1806651 13.9788109,54.1333097 13.9939881,54.0871748 C14.1534892,53.5937734 14.3355609,53.1079126 14.5396314,52.6311187 C14.5599493,52.5835192 14.5817358,52.536408 14.6025432,52.4888085 C14.7920156,52.0580618 14.9996213,51.6354748 15.2248068,51.2221739 C15.2473277,51.180921 15.2691143,51.1389358 15.2921248,51.097683 C15.536459,50.6592044 15.8011215,50.2323001 16.0852538,49.8183552 C16.1183009,49.7702675 16.1523271,49.7231563 16.1858637,49.6755567 C16.3350512,49.4629602 16.4893148,49.253951 16.6485223,49.0487081 C16.7640646,48.9002954 16.8822995,48.7538354 17.0029824,48.6095723 C17.0411702,48.5636815 17.0783786,48.5175466 17.1170559,48.4721441 C17.4356558,48.0995667 17.7710404,47.7415924 18.1221756,47.3993249 C18.1730925,47.3500167 18.2249886,47.301929 18.2763952,47.2528649 C18.4623894,47.0763827 18.6524819,46.9042455 18.8465178,46.7365936 L18.9077161,46.6828916 C20.3128273,45.4855814 21.9362939,44.5118668 23.7377249,43.8022683 C23.9859812,43.7042376 24.2363841,43.611701 24.4887495,43.5247266 C24.6577991,43.4668849 24.8276191,43.4113064 24.9981636,43.3580064 C25.0767421,43.3335964 25.154831,43.30821 25.2338991,43.2845323 C25.4836435,43.2095526 25.7349379,43.1398061 25.9876165,43.0753387 L25.9998561,43.0724095 C26.2524444,43.0090021 26.5062624,42.9505695 26.7611621,42.8971457 C26.8421885,42.8803028 26.9239494,42.8649245 27.0054654,42.8488139 C27.2819614,42.7941898 27.5595311,42.7451158 27.8380061,42.7016217 C28.0272509,42.6724808 28.2169031,42.646034 28.4069047,42.6222892 C28.4906239,42.6117929 28.5738535,42.6000761 28.6580623,42.5905562 C28.9324939,42.5586816 29.2075319,42.5322322 29.4830143,42.5112238 L30.9958345,42.5112238 C25.1455289,42.5112238 20.1248263,38.9734835 17.9650185,33.9267173 C17.1993063,37.6995259 12.6001372,40.9865756 9.81831066,39.8681097 C11.712763,38.0061154 10.1269945,28.7115223 16.8399504,28.7806026 C16.3608907,19.4855212 25.0072209,13.8590178 30.9960793,14.2666647 L31.0029335,14.2666647 C36.9981566,13.8590178 45.6652942,19.4855212 45.1798699,28.7806026 C51.8715287,28.7134751 50.2857603,38.0202732 52.1733584,39.8820233 C49.3885943,41.0107414 44.7859981,37.692447 44.0398693,33.8974253 C41.8871605,38.9598138 36.8574006,42.5112238 30.9958345,42.5112238 L32.5223631,42.5112238 C32.7999582,42.5319722 33.0743711,42.5593114 33.3470704,42.5905562 C33.431524,42.6000761 33.5149983,42.6117929 33.5984727,42.6222892 C33.8813737,42.6580554 34.1635152,42.6995609 34.4447217,42.7467801 C34.63003,42.7780249 34.8138695,42.812443 34.9967298,42.8483257 C35.0797145,42.8646804 35.1629441,42.8803028 35.2454394,42.8976339 C35.4946385,42.9501154 35.7416346,43.0062584 35.9859379,43.0680157 C36.0018494,43.0719213 36.0180058,43.0755828 36.0339173,43.0799766 C36.2806686,43.1427103 36.5239927,43.2110583 36.7653585,43.2830677 C36.8512808,43.3084541 36.9357344,43.3360374 37.0209223,43.3626443 C37.18322,43.4134171 37.3442938,43.4658986 37.5041435,43.520577 C37.7512127,43.6057681 37.9964672,43.6961048 38.2397462,43.7915279 C40.0196354,44.4891655 41.6259665,45.4445726 43.0205516,46.6213784 L43.0205516,46.6186933 C43.0418486,46.6362685 43.0619216,46.6553083 43.0829738,46.6733717 C43.1977817,46.7710117 43.3106312,46.8703604 43.4225016,46.9711736 C43.4800279,47.0231669 43.5370647,47.0761366 43.5938566,47.1288621 C43.711602,47.2379748 43.8291026,47.3478198 43.9436657,47.4605939 C43.9654523,47.4820747 43.9865044,47.5045319 44.008291,47.5262568 C44.4212243,47.9377907 44.8113504,48.3714675 45.1769324,48.8253567 C45.2026356,48.8573338 45.2288285,48.8890668 45.2540421,48.9210439 C45.36885,49.065551 45.4809652,49.212011 45.5906324,49.3606678 C45.6102158,49.3872747 45.6295544,49.4146139 45.6491379,49.4414649 C46.7644144,50.9700187 47.6192312,52.7089866 48.17026,54.6193127 C55.9700964,49.1995619 61.075742,40.1917862 61.075742,29.9940233 C61.0759868,13.4303783 47.6077259,0 30.9958345,0 Z" id="路径" fill="url(#linearGradient-1)"></path>
                    <path d="M31,13.8141413 C25.0230948,13.4007694 16.3936692,19.1062918 16.8715479,28.5319138 C10.1717167,28.4618633 11.7546291,37.8869902 9.86363636,39.7751345 C12.6402685,40.9093082 17.2427429,37.6736945 18.006958,33.8479004 C17.3331391,32.2483739 16.9294505,30.4009984 16.8759456,28.564835 C20.9982609,31.1908604 29.5739374,26.7365925 31,20.5919554 L31,13.8141413 Z" id="路径" fill="url(#linearGradient-2)"></path>
                    <path d="M45.1231593,28.5718198 C45.0681873,30.389289 44.6638173,32.221417 44,33.8073425 C44.7446872,37.6532924 49.3569798,40.9171036 52.1363636,39.7732384 C50.2524125,37.886504 51.8351172,28.4548111 45.1563868,28.5228394 C45.6408733,19.1030206 36.990481,13.4010109 31.0068409,13.8141284 L31,13.8141284 L31,20.5880169 C32.4295161,26.7150179 40.9836463,31.1593696 45.1231593,28.5718198 Z" id="路径" fill="url(#linearGradient-3)"></path>
                    <path d="M35.9524857,42.8149126 C35.9795664,42.8221785 36.0070637,42.8281622 36.0341444,42.8358556 C36.0070751,42.828272 35.9798491,42.8212893 35.9524857,42.8149126 Z M34.966563,42.5776137 C35.0489517,42.6062501 35.1315833,42.6336042 35.2134859,42.6639503 C35.1315833,42.6336044 35.0489517,42.6066776 34.966563,42.5776137 Z M48.0444824,54.5413803 C48.0448065,54.5412148 48.0451305,54.5410494 48.0454545,54.540884 C47.4983843,52.5988393 46.6497085,50.8309979 45.5424441,49.2770643 C46.6487364,50.831246 47.4981413,52.5993355 48.0444824,54.5413803 Z M36.722729,43.0164143 C36.808034,43.0491418 36.8918808,43.0847014 36.9764568,43.1190024 C36.8918808,43.0843867 36.807791,43.0491418 36.722729,43.0164143 Z M42.9327417,46.4101536 C41.5481752,45.2140565 39.953384,44.242786 38.1862816,43.5333168 C38.2137444,43.5442355 38.2416934,43.5554024 38.2691563,43.5668175 L38.2691563,51.5444375 L23.6093266,51.5444375 L23.6093266,43.6161999 C23.66887,43.5913846 23.7291425,43.5678101 23.7889289,43.5437392 C22.0004394,44.2648716 20.3886358,45.2550018 18.9936188,46.4749215 L18.9936188,57.4291358 C17.2270365,56.636012 15.5398684,55.6699891 13.9557606,54.5446063 L13.9545455,54.549073 C18.7872827,57.9842538 24.6602069,60 30.9944102,60 C35.3527445,60 39.492591,59.045852 43.2255981,57.3323561 C43.1291135,57.3767755 43.0299555,57.4167281 42.9329848,57.4601549 L42.9329848,46.4101536 L42.9327417,46.4101536 Z M25.0400695,43.1202432 C25.1180835,43.0861607 25.1956115,43.050715 25.2741116,43.0176551 C25.1956115,43.050715 25.1183265,43.0865015 25.0400695,43.1202432 Z M17.1020828,48.4306147 C17.1399962,48.3839619 17.1769374,48.337061 17.2153368,48.2909046 C17.1769374,48.337061 17.1399961,48.3839619 17.1020828,48.4306147 Z M26.7904026,42.6633436 C26.870847,42.6338524 26.9520205,42.6069257 27.0329509,42.5787167 C26.9520205,42.6069257 26.870604,42.633425 26.7904026,42.6633436 Z M26.0389075,42.8275763 L26.0597388,42.8224474 L26.0389075,42.8275763 Z M18.2134787,47.2005207 C18.2640298,47.1503938 18.3155531,47.1015076 18.3665903,47.0516289 C18.3155531,47.1015076 18.2637868,47.1503938 18.2134787,47.2005207 Z M14.0769151,54.1413578 C14.1019127,54.0942088 14.1248271,54.0460671 14.1506579,53.9991662 C14.1252437,54.0460671 14.1019127,54.0939606 14.0769151,54.1413578 Z M14.6564285,52.518934 C14.6887243,52.4705442 14.7233546,52.4224025 14.7564285,52.3742608 C14.7233546,52.4226507 14.6887243,52.470296 14.6564285,52.518934 Z M33.3287548,42.3222656 C33.4126016,42.3389345 33.4954763,42.3594502 33.578351,42.3778288 C33.4952333,42.3594502 33.4123586,42.3389345 33.3287548,42.3222656 Z M28.4240793,42.3778288 C28.5071971,42.3594502 28.5898287,42.3389345 28.6734325,42.3222656 C28.5898287,42.3389345 28.507197,42.3594502 28.4240793,42.3778288 Z M16.1909472,49.6592198 C16.2237939,49.6103337 16.2576138,49.5624402 16.2909472,49.5140503 C16.2576138,49.5626883 16.2235506,49.6103337 16.1909472,49.6592198 Z M15.3364385,51.0863472 C15.3698931,51.0444093 15.4022567,51.001727 15.4364385,50.9597892 C15.4026204,51.0017271 15.3702567,51.0444094 15.3364385,51.0863472 Z" id="形状" fill="url(#linearGradient-4)" fill-rule="nonzero"></path>
                    <path d="M29.6363636,45.862069 C29.6363636,46.231654 29.8312943,46.5731648 30.1477272,46.7579573 C30.4641602,46.9427499 30.8540216,46.9427499 31.1704546,46.7579573 C31.4868875,46.5731648 31.6818182,46.231654 31.6818182,45.862069 C31.6818182,45.4924839 31.4868875,45.1509732 31.1704546,44.9661806 C30.8540216,44.7813881 30.4641602,44.7813881 30.1477272,44.9661806 C29.8312943,45.1509732 29.6363636,45.4924839 29.6363636,45.862069 Z" id="路径" fill="#ED6831"></path>
                    <path d="M29.6363636,48.6206897 C29.6363636,49.1920187 30.0942542,49.6551724 30.6590909,49.6551724 C31.2239276,49.6551724 31.6818182,49.1920187 31.6818182,48.6206897 C31.6818182,48.0493606 31.2239276,47.5862069 30.6590909,47.5862069 C30.0942542,47.5862069 29.6363636,48.0493606 29.6363636,48.6206897 Z" id="路径" fill="#ED6831"></path>
                </g>
            </g>
        </g>
    </g>
</svg>