<?xml version="1.0" encoding="UTF-8"?>
<svg width="60px" height="61px" viewBox="0 0 60 61" version="1.1" xmlns="http://www.w3.org/2000/svg" xmlns:xlink="http://www.w3.org/1999/xlink">
    <!-- Generator: Sketch 52.5 (67469) - http://www.bohemiancoding.com/sketch -->
    <title>ic_time_normal_nhz</title>
    <desc>Created with Sketch.</desc>
    <defs>
        <linearGradient x1="50%" y1="0%" x2="50%" y2="109.921875%" id="linearGradient-1">
            <stop stop-color="#76C8FF" offset="0%"></stop>
            <stop stop-color="#4197FF" offset="100%"></stop>
        </linearGradient>
        <linearGradient x1="50%" y1="2.97833382%" x2="50%" y2="99.6639692%" id="linearGradient-2">
            <stop stop-color="#C7E4FF" offset="0%"></stop>
            <stop stop-color="#91C3FF" offset="100%"></stop>
        </linearGradient>
        <linearGradient x1="50%" y1="0%" x2="50%" y2="100%" id="linearGradient-3">
            <stop stop-color="#FFAD6D" offset="0%"></stop>
            <stop stop-color="#DF5117" offset="100%"></stop>
        </linearGradient>
        <linearGradient x1="50%" y1="0%" x2="50%" y2="100%" id="linearGradient-4">
            <stop stop-color="#008EF8" offset="0%"></stop>
            <stop stop-color="#004AA3" offset="100%"></stop>
        </linearGradient>
        <linearGradient x1="50%" y1="0%" x2="50%" y2="100%" id="linearGradient-5">
            <stop stop-color="#0076CE" offset="0%"></stop>
            <stop stop-color="#004394" offset="100%"></stop>
        </linearGradient>
    </defs>
    <g id="页面-1" stroke="none" stroke-width="1" fill="none" fill-rule="evenodd">
        <g id="添加孩子" transform="translate(-158.000000, -286.000000)">
            <g id="ic_time_normal_nhz" transform="translate(158.000000, 286.000000)">
                <path d="M29.9998779,2.06181165e-14 C13.4325625,2.06181165e-14 0,13.5157703 0,30.2016302 C0,40.4748052 5.09714722,49.5461086 12.8830043,55 C14.4093653,49.6488453 18.2804432,45.6295805 23.5440936,43.813501 C23.6856946,43.7645905 23.8287605,43.717892 23.9720704,43.6721767 C24.0716794,43.6407166 24.170556,43.6080277 24.2711415,43.5780423 C24.5439542,43.4961544 24.8186026,43.4205976 25.0948686,43.3514318 C25.3188779,43.2952081 25.5438462,43.2429306 25.7696705,43.1946232 C25.8570725,43.1761896 25.9459393,43.1592306 26.0338296,43.1417802 C26.3062279,43.0874514 26.579724,43.038858 26.8541388,42.9960318 C27.0408471,42.9670348 27.2279586,42.9407335 27.4154158,42.9171359 C27.4998881,42.9060757 27.5838722,42.8942782 27.6690769,42.8846928 C27.942613,42.8525984 28.2167543,42.8259669 28.4913391,42.8048137 L31.5223327,42.8048137 C31.7994312,42.8257052 32.0731117,42.8532327 32.3453274,42.8846928 C32.4288231,42.8942782 32.5115865,42.90583 32.594594,42.9163986 C32.87632,42.9523282 33.1573,42.9939556 33.4373639,43.0412556 C33.6255956,43.0734529 33.8118742,43.1083539 33.9974202,43.1454669 C34.0765215,43.161197 34.1558669,43.1761896 34.234724,43.1926569 C34.7490208,43.3018943 35.2586442,43.4323504 35.7623057,43.5836953 C35.8384772,43.606553 35.913184,43.6311311 35.9886231,43.6549719 C36.1626947,43.7097812 36.3353013,43.7660652 36.5061991,43.8255443 C41.7490977,45.6465394 45.6040624,49.6569561 47.1287145,54.9918892 C54.9077355,49.5372605 60,40.469398 60,30.2016302 C59.9997559,13.5157703 46.5674375,5.89952395e-08 29.9998779,0 Z M29.9998779,42.7976861 C22.1991284,42.7976861 15.8754236,36.4314538 15.8754237,28.5782434 C15.8754237,28.5035258 15.8798182,28.4297914 15.8810389,28.3555654 C15.8041349,19.366353 24.1739739,13.9571938 30.0137939,14.3588008 L30.0206298,14.3588008 C36.0069335,13.9478541 44.6641249,19.6258983 44.159,29.0031996 C44.1441075,29.0125394 44.1279943,29.019667 44.1131017,29.0290067 C43.8760421,36.673057 37.6504815,42.7976861 29.9998779,42.7976861 Z" id="形状" fill="url(#linearGradient-1)" fill-rule="nonzero"></path>
                <path d="M30.0195974,20.8333333 C28.5892371,26.9244616 19.9857632,31.3401679 15.8541555,28.7323476 C15.8442429,28.5170311 15.839179,28.3015183 15.8389676,28.0859732 C15.8377427,28.1603002 15.8333333,28.2338912 15.8333333,28.308218 C15.8333333,36.1459064 22.1784597,42.5 30.0056342,42.5 C37.6821543,42.5 43.928804,36.387285 44.1666667,28.7581045 C40.0110523,31.306316 31.4519173,26.9026297 30.0195974,20.8333333 Z" id="路径" fill="#FFFFFF"></path>
                <path d="M32.2682531,42.5094873 C32.3499618,42.5257352 32.4309538,42.545316 32.5121847,42.5632303 C32.4307149,42.545316 32.3497229,42.5257352 32.2682531,42.5094873 Z M25.8333333,42.8489767 C25.9188647,42.8177308 26.0058295,42.7889845 26.0918387,42.7594051 C26.0058295,42.7889846 25.9188647,42.8177308 25.8333333,42.8489767 Z M35.6118597,43.1988205 C35.686401,43.2308895 35.7595088,43.2653723 35.8333333,43.2988205 C35.7595088,43.2653723 35.6861621,43.2308895 35.6118597,43.1988205 Z M27.4438551,42.5642238 C27.5265195,42.5454762 27.608706,42.5254788 27.6920871,42.509231 C27.608706,42.5254789 27.5265195,42.5454763 27.4438551,42.5642238 Z M33.8847477,42.7648104 C33.9621559,42.7914736 34.0398032,42.816887 34.1169725,42.8447999 C34.0400421,42.8168869 33.962156,42.7914735 33.8847477,42.7648104 Z M29.9727637,48.2151433 C29.9156632,48.2151433 29.8592794,48.2119489 29.8026567,48.2107203 L29.9727637,48.3333333 L30.142393,48.2107203 C30.0860092,48.2121946 30.0296254,48.2151432 29.9727637,48.2151433 Z" id="形状" fill="#A0D9F6" fill-rule="nonzero"></path>
                <path d="M36.5100502,43.7795497 C36.5579721,43.7960609 36.6058941,43.8135579 36.6535716,43.8305621 C36.4939632,44.2862186 36.2883181,44.7241362 36.0398772,45.1374138 C37.0543067,46.6882374 36.8019829,53.5152621 35.2821725,52.4378426 L32.6347293,50.565666 L29.994132,48.6865892 L27.3466888,50.565666 L24.7060915,52.4378426 C23.1862811,53.5152621 22.9339573,46.6882373 23.9483868,45.1376602 C23.7010883,44.7258641 23.4961144,44.2897141 23.3366484,43.8359837 C23.4007074,43.8130651 23.4645218,43.7896537 23.5288252,43.7677208 C18.2571662,45.5886386 14.3806227,49.6183649 12.8520103,54.9840224 C17.7138878,58.3939614 23.6219797,60.3945312 29.994132,60.3945312 C36.3714189,60.3945312 42.2839117,58.3907577 47.1479897,54.97589 C45.6210887,49.6264973 41.7604377,45.6053962 36.5100502,43.7795497 Z M23.9576778,43.6325672 C24.0574337,43.5984887 24.1564561,43.5636177 24.25719,43.5313884 C24.1564561,43.5636177 24.0571891,43.5987529 23.9576778,43.6325672 Z" id="形状" fill="url(#linearGradient-2)" fill-rule="nonzero"></path>
                <path d="M24.7044639,45.003422 L27.3483152,46.931122 L29.8247224,48.7322032 C29.8827402,48.7334719 29.9405133,48.7367706 29.9990208,48.7367706 C30.0572835,48.7367706 30.1150565,48.7337257 30.1728295,48.7322032 L32.642872,46.931122 L35.2935776,45.003422 C35.5968861,44.7821564 35.8495208,44.8859381 36.052216,45.2041342 C36.3010089,44.7786255 36.5069096,44.3277155 36.6666667,43.858525 C36.6189305,43.8410166 36.5709494,43.8230008 36.5229685,43.8059998 C36.3516077,43.7445936 36.1785334,43.6862322 36.0039902,43.6299009 C35.9283467,43.6052876 35.8534376,43.5799132 35.7770597,43.5563149 C35.2720022,43.4001846 34.7610029,43.2655029 34.2453396,43.1526067 C34.1665136,43.1356058 34.0869533,43.1201274 34.0073929,43.1038877 C33.8213442,43.065826 33.634561,43.0295405 33.4458194,42.9962999 C33.1650274,42.9472659 32.8832821,42.9042891 32.6007662,42.8673975 C32.5175339,42.8564865 32.4345463,42.8445605 32.3508244,42.8346644 C32.0763019,42.8015303 31.8011731,42.7740359 31.5256,42.7521973 L28.4863952,42.7521973 C28.2110674,42.7740479 27.9361837,42.8015424 27.6619053,42.8346644 C27.5767145,42.8445605 27.492503,42.8567402 27.407557,42.8681587 C27.1239821,42.9052354 26.8411766,42.9483812 26.5593214,42.9975686 C26.3798654,43.0293033 26.2008188,43.0634773 26.0222279,43.1000816 C25.9340995,43.1180975 25.844992,43.1356058 25.7573532,43.1546367 C25.5296882,43.2046244 25.3042265,43.2586721 25.0807231,43.316526 C25.0224604,43.3317506 24.9641978,43.3469753 24.90618,43.3627075 C24.6879842,43.4212882 24.4708113,43.4838885 24.2547644,43.5504787 C24.1539064,43.5814356 24.054762,43.6149299 23.9548831,43.647663 C23.8113122,43.6946208 23.6682577,43.7432583 23.5257469,43.7935663 C23.4613642,43.8164034 23.3974712,43.8405091 23.3333333,43.8638537 C23.4927395,44.3312309 23.6979777,44.7804265 23.9458255,45.204388 C24.1485208,44.8859381 24.4009106,44.7821564 24.7044639,45.003422 Z" id="路径" fill="#FFFFFF"></path>
                <path d="M30,48.7464729 L35.2973326,52.518934 C36.8198137,53.565016 37.0725808,46.5965981 36.0563688,45.0908813 C35.8538122,44.7905994 35.6008001,44.6927385 35.2973326,44.9013806 L30,48.7464729 Z M24.7026674,44.9503174 C24.3991999,44.7416753 24.1464327,44.839536 23.9436312,45.1398181 C22.9274192,46.6452956 23.1801863,53.565016 24.7026674,52.518934 L30,48.7462336 L24.7026674,44.9503174 Z" id="形状" fill="url(#linearGradient-3)" fill-rule="nonzero"></path>
                <path d="M30,20.7288338 L30,14.1869687 C24.1463852,13.7968267 15.7567751,19.0547834 15.8338607,27.792481 C15.8355738,28.0010504 15.8375315,28.2096199 15.8490331,28.4220119 C19.9764189,30.9616374 28.5708566,26.6612367 30,20.7288338 Z" id="路径" fill="url(#linearGradient-4)"></path>
                <path d="M30,20.7296081 C31.4275167,26.641417 39.9579484,30.9308356 44.0996268,28.4487456 C44.1147638,28.439666 44.1308774,28.4327368 44.1455261,28.4236571 C44.6506624,19.307209 35.9930311,13.7872587 30.006836,14.1870023 L30,14.1870023 L30,20.7296081 Z" id="路径" fill="url(#linearGradient-5)"></path>
            </g>
        </g>
    </g>
</svg>