<?xml version="1.0" encoding="UTF-8"?>
<svg width="60px" height="60px" viewBox="0 0 60 60" version="1.1" xmlns="http://www.w3.org/2000/svg" xmlns:xlink="http://www.w3.org/1999/xlink">
    <!-- Generator: Sketch 52.5 (67469) - http://www.bohemiancoding.com/sketch -->
    <title>ic_time_normal_yqbbjr</title>
    <desc>Created with Sketch.</desc>
    <g id="页面-1" stroke="none" stroke-width="1" fill="none" fill-rule="evenodd">
        <g id="亲友团-没有亲友团" transform="translate(-251.000000, -92.000000)">
            <g id="ic_time_normal_yqbbjr" transform="translate(251.000000, 92.000000)">
                <circle id="椭圆形" fill="#FFDC2E" cx="30" cy="30" r="30"></circle>
                <g id="分组-7" transform="translate(19.000000, 20.000000)">
                    <g id="分组-6">
                        <circle id="椭圆形" fill="#202326" cx="10" cy="6" r="6"></circle>
                        <path d="M8.28571198,7.0307352 C8.6356821,7.61154624 9.27247693,8 10,8 C10.7306488,8 11.3697881,7.60820113 11.718783,7.02323829" id="路径" stroke="#FFDC2E" stroke-width="1.5" stroke-linecap="round"></path>
                        <path d="M20,20 C20,14.4771525 15.5228475,10 10,10 C4.4771525,10 0,14.4771525 0,20 C10.9819336,20 15.5228475,20 20,20 Z" id="椭圆形-copy-2" fill="#202326"></path>
                    </g>
                    <path d="M19,12.7672866 C20.2054837,11.9420474 21.8277961,12.1042005 22.8694726,13.2537461 C24.0435091,14.5493581 24.0435091,16.6222148 22.8694726,17.9178268 L21.2126183,19.7462539 C19.999874,21.084582 18.000126,21.084582 16.7873817,19.7462539 L15.1305274,17.9178268 C13.9564909,16.6222148 13.9564909,14.5493581 15.1305274,13.2537461 C16.1722039,12.1042005 17.7945163,11.9420474 19,12.7672866 Z" id="ic_questions_normal_dz-copy" stroke="#FFDC2E" stroke-width="1.5" fill="#202326"></path>
                </g>
            </g>
        </g>
    </g>
</svg>